HIERARCHY
ROOT Model_Hips
{
	OFFSET 0.000000 96.915077 0.000000
	CHANNELS 6 Xposition Yposition Zposition Xrotation Yrotation Zrotation
	JOINT Model_Spine
	{
		OFFSET 0.000000 11.137703 -1.289900
		CHANNELS 3 Xrotation Yrotation Zrotation
		JOINT Model_Spine1
		{
			OFFSET 0.000000 12.993942 -1.504922
			CHANNELS 3 Xrotation Yrotation Zrotation
			JOINT Model_Spine2
			{
				OFFSET 0.000000 14.850220 -1.719911
				CHANNELS 3 Xrotation Yrotation Zrotation
				JOINT Model_Neck
				{
					OFFSET 0.000000 16.706543 -1.934903
					CHANNELS 3 Xrotation Yrotation Zrotation
					JOINT Model_Head
					{
						OFFSET 0.000000 10.471298 2.002100
						CHANNELS 3 Xrotation Yrotation Zrotation
						JOINT Model_HeadTop_End
						{
							OFFSET 0.000000 20.842606 3.985100
							CHANNELS 3 Xrotation Yrotation Zrotation
							End Site
							{
								OFFSET 0.000000 21.220154 0.000000
							}
						}
					}
				}
				JOINT Model_LeftShoulder
				{
					OFFSET 7.008500 14.768600 -1.919946
					CHANNELS 3 Xrotation Yrotation Zrotation
					JOINT Model_LeftArm
					{
						OFFSET 14.126271 -3.718048 0.029937
						CHANNELS 3 Xrotation Yrotation Zrotation
						JOINT Model_LeftForeArm
						{
							OFFSET 28.282801 0.000000 0.000000
							CHANNELS 3 Xrotation Yrotation Zrotation
							JOINT Model_LeftHand
							{
								OFFSET 26.204689 0.000000 0.000000
								CHANNELS 3 Xrotation Yrotation Zrotation
								End Site
								{
									OFFSET 26.204704 0.000000 0.000000
								}
							}
						}
					}
				}
				JOINT Model_RightShoulder
				{
					OFFSET -7.008500 14.768555 -1.949840
					CHANNELS 3 Xrotation Yrotation Zrotation
					JOINT Model_RightArm
					{
						OFFSET -14.126281 -3.718018 -0.029932
						CHANNELS 3 Xrotation Yrotation Zrotation
						JOINT Model_RightForeArm
						{
							OFFSET -28.283798 0.000000 -0.000001
							CHANNELS 3 Xrotation Yrotation Zrotation
							JOINT Model_RightHand
							{
								OFFSET -26.204193 0.000000 -0.000001
								CHANNELS 3 Xrotation Yrotation Zrotation
								End Site
								{
									OFFSET -26.204208 0.000000 -0.000001
								}
							}
						}
					}
				}
			}
		}
	}
	JOINT Model_LeftUpLeg
	{
		OFFSET 8.327700 -6.193199 -0.402800
		CHANNELS 3 Xrotation Yrotation Zrotation
		JOINT Model_LeftLeg
		{
			OFFSET 0.735802 -42.108742 -0.610721
			CHANNELS 3 Xrotation Yrotation Zrotation
			JOINT Model_LeftFoot
			{
				OFFSET -0.735806 -36.833748 -0.172876
				CHANNELS 3 Xrotation Yrotation Zrotation
				JOINT Model_LeftToeBase
				{
					OFFSET -0.565857 -11.977769 16.297714
					CHANNELS 3 Xrotation Yrotation Zrotation
					JOINT Model_LeftToe_End
					{
						OFFSET -0.111712 -0.312793 7.857784
						CHANNELS 3 Xrotation Yrotation Zrotation
						End Site
						{
							OFFSET -0.111712 -0.312793 7.857784
						}
					}
				}
			}
		}
	}
	JOINT Model_RightUpLeg
	{
		OFFSET -8.327700 -6.193199 -0.516500
		CHANNELS 3 Xrotation Yrotation Zrotation
		JOINT Model_RightLeg
		{
			OFFSET -0.735785 -42.108738 -0.434061
			CHANNELS 3 Xrotation Yrotation Zrotation
			JOINT Model_RightFoot
			{
				OFFSET 0.735776 -36.833748 -0.021630
				CHANNELS 3 Xrotation Yrotation Zrotation
				JOINT Model_RightToeBase
				{
					OFFSET 0.565817 -11.977745 15.903093
					CHANNELS 3 Xrotation Yrotation Zrotation
					JOINT Model_RightToe_End
					{
						OFFSET 0.111702 -0.312791 7.811342
						CHANNELS 3 Xrotation Yrotation Zrotation
						End Site
						{
							OFFSET 0.111702 -0.312791 7.811342
						}
					}
				}
			}
		}
	}
}
MOTION
Frames: 11
Frame Time: 0.033333
5.168489 95.261543 -63.523621 -8.928054 0.051910 -3.708541 16.078520 -0.449274 2.173366 8.008982 0.758476 0.439265 7.821063 1.116930 0.539172 -1.044925 0.832005 -0.413910 -1.043768 0.838689 -0.372299 -0.000000 0.000000 -0.000000 0.416451 -9.001026 -13.189167 -6.788330 1.110734 -63.445088 -0.000002 -39.301424 0.000009 0.000000 0.000000 -0.000000 0.228858 6.099294 14.745975 2.128635 15.661557 53.989862 0.000019 30.120113 -0.000001 0.000003 -0.000001 0.000001 -3.611854 -1.766480 1.793671 30.552993 6.826720 2.298459 -18.013676 -0.662718 -2.274745 0.000275 0.000001 -0.000367 0.000000 -0.000000 -0.000000 -11.303516 -9.615826 -3.587326 40.601564 0.686777 0.834357 -8.000992 -3.742375 5.027874 -9.706466 0.082756 -1.501122 0.000000 0.000001 0.000000 
5.113231 95.041458 -65.930565 -9.328619 -1.037786 -4.196646 15.282511 1.209396 1.796360 7.933092 1.148345 0.399405 7.735345 1.511653 0.495044 -0.833683 0.518224 -0.259075 -0.830703 0.524667 -0.220425 -0.000001 0.000000 -0.000000 0.446088 -8.480868 -12.921059 -2.502998 0.734249 -65.747729 0.000001 -33.437809 -0.000002 -0.000001 0.000001 -0.000000 0.163983 6.499074 14.937347 1.421475 15.841784 52.723695 0.000001 33.471882 0.000006 -0.000001 -0.000001 -0.000000 -5.645483 -1.879031 2.318050 32.284047 7.743490 1.956552 -17.260496 -0.628297 -2.433092 0.000300 -0.000001 -0.000296 -0.000000 0.000000 -0.000000 -6.692440 -9.163394 -3.103274 44.533465 0.441311 -0.174979 -9.978684 -3.954637 5.828997 -16.939842 0.001577 -0.008721 -0.000000 0.000003 0.000000 
4.997281 94.540092 -68.332382 -9.704863 -1.879410 -4.097895 14.552633 2.754639 0.943406 7.931795 1.526234 0.278167 7.724103 1.892677 0.370591 -0.729042 0.170395 -0.151158 -0.724154 0.175960 -0.116048 0.000000 -0.000000 0.000000 0.482561 -7.711082 -12.636651 2.156493 -1.259455 -67.280273 -0.000012 -28.257766 -0.000000 -0.000002 -0.000000 -0.000000 0.094887 6.893685 15.157438 0.341267 15.601486 51.892560 0.000012 37.161953 0.000017 0.000002 -0.000001 0.000000 -8.035535 -2.315783 2.230518 34.644666 8.742109 1.600883 -16.778797 -0.568356 -2.685021 0.000348 -0.000000 -0.000330 0.000000 0.000000 -0.000000 -1.507199 -9.695719 -3.523096 46.401286 0.843418 -1.338823 -12.063482 -4.273483 6.859518 -20.151177 -0.272944 1.155021 0.000000 -0.000000 0.000000 
4.873440 93.919533 -70.761559 -10.054292 -2.566457 -3.620274 13.799958 4.525320 -0.058337 7.963754 1.942244 0.099851 7.744837 2.311192 0.189780 -0.626102 -0.209016 -0.156752 -0.619084 -0.204774 -0.125849 0.000001 0.000000 0.000000 0.510534 -7.009039 -12.475691 7.311385 -4.327963 -68.000926 -0.000008 -24.509297 0.000002 0.000002 -0.000000 0.000000 0.029992 7.212571 15.247369 -0.876054 14.869180 51.768770 0.000003 41.214987 0.000014 0.000001 0.000001 0.000000 -10.457412 -2.947079 1.673842 36.851060 9.625260 1.319445 -16.123150 -0.274654 -2.961302 0.000309 0.000001 -0.000357 -0.000000 0.000000 -0.000000 4.290289 -10.697680 -4.032308 45.434579 3.795432 -3.167550 -12.843260 -4.602351 8.078800 -24.188828 -0.254331 0.845883 0.000000 0.000000 0.000000 
4.743731 93.247543 -73.340515 -10.287720 -3.366177 -3.029384 13.022853 6.674817 -1.082259 7.953025 2.412659 -0.124525 7.722180 2.780411 -0.035240 -0.420697 -0.644079 -0.155323 -0.411509 -0.640642 -0.128562 -0.000001 -0.000000 -0.000000 0.538350 -6.258428 -12.323706 11.922952 -7.675869 -68.172378 0.000007 -23.099461 0.000003 0.000001 -0.000000 -0.000000 -0.044117 7.668829 15.412667 -1.886670 13.777803 51.929600 0.000011 45.617478 -0.000008 0.000002 0.000002 -0.000000 -12.988291 -3.534627 1.031117 38.703472 9.693931 1.042139 -15.101654 0.877578 -3.065872 0.000351 -0.000001 -0.000335 -0.000000 0.000000 -0.000000 10.040861 -11.819219 -4.045850 42.983535 9.300897 -5.939857 -13.868653 -4.999267 8.591416 -26.446605 0.260948 -0.760603 0.000001 0.000001 0.000000 
4.593606 92.484383 -76.256035 -10.250807 -4.479133 -2.563215 12.462472 9.254952 -1.976353 7.876076 2.969095 -0.328244 7.631261 3.334978 -0.240283 -0.261016 -1.100524 -0.154865 -0.249829 -1.098013 -0.132018 0.000000 0.000000 -0.000000 0.576227 -5.133141 -12.208739 16.899292 -10.670892 -67.933437 -0.000005 -24.273249 0.000018 0.000001 -0.000000 0.000000 -0.112225 8.011656 15.514071 -2.659176 13.108123 51.895566 -0.000025 50.050868 0.000025 0.000002 -0.000000 0.000000 -15.989382 -4.012880 0.584404 40.382739 9.754764 0.865305 -13.691548 2.206245 -3.328305 0.000245 0.000000 -0.000429 0.000000 -0.000000 -0.000000 14.437278 -12.132248 -4.010028 40.428658 7.950182 -8.244533 -16.562345 1.041631 10.861834 -23.915919 0.920742 -3.269596 0.000000 -0.000001 0.000000 
4.382287 91.716660 -79.601814 -9.897175 -5.760430 -2.375578 12.137923 11.956603 -2.606201 7.718085 3.536813 -0.449666 7.459782 3.898562 -0.364823 -0.207854 -1.524272 -0.138013 -0.195323 -1.523016 -0.118649 0.000002 0.000000 -0.000000 0.625238 -3.577007 -12.000801 21.702926 -13.632415 -67.137222 -0.000012 -26.463148 -0.000005 -0.000001 -0.000001 -0.000000 -0.193622 8.287516 15.901925 -3.446636 13.105184 51.109609 0.000001 53.686407 0.000016 -0.000001 0.000001 0.000001 -19.345529 -4.340493 0.463083 41.381302 9.773547 1.187548 -11.538274 3.594860 -3.920878 0.000301 -0.000001 -0.000326 0.000001 0.000000 0.000000 17.152321 -11.354625 -3.944398 37.986312 6.547862 -9.022423 -18.982805 4.777749 11.027001 -22.408799 0.773049 -3.701427 0.000000 0.000000 0.000000 
4.122922 91.134041 -83.318771 -9.413304 -6.848206 -2.644764 12.197612 13.866619 -2.635977 7.623046 3.922986 -0.557689 7.359759 4.277999 -0.474794 -0.291504 -1.856631 -0.034959 -0.279040 -1.856530 -0.019079 -0.000000 0.000000 0.000000 0.676257 -1.583287 -11.566578 26.145368 -16.139474 -67.091329 -0.000009 -29.528687 0.000014 0.000000 0.000000 0.000000 -0.293655 8.867061 16.361455 -4.789303 13.972086 49.649656 -0.000006 56.018018 0.000031 -0.000001 -0.000001 0.000002 -22.378773 -4.687399 1.041331 40.884303 9.764620 1.689910 -8.306646 4.468400 -4.617788 0.000208 -0.000001 -0.000217 0.000000 0.000000 -0.000000 18.721625 -11.054335 -3.290743 34.923362 6.887644 -9.381301 -20.702114 5.303070 7.526978 -22.983834 0.083584 -0.632582 0.000001 -0.000000 0.000000 
3.874882 90.677299 -87.436935 -8.759073 -7.463639 -3.522939 12.238216 15.504070 -1.696436 7.575541 4.233335 -0.592704 7.315378 4.579040 -0.512392 -0.386283 -2.117236 0.052117 -0.374417 -2.117931 0.064825 0.000000 -0.000000 0.000001 0.693357 -0.279693 -11.034708 30.414255 -18.036141 -67.082887 -0.000015 -33.345639 -0.000014 0.000001 0.000000 0.000000 -0.374910 9.343485 16.498722 -6.515987 14.761813 47.759818 -0.000019 57.805250 0.000034 0.000002 -0.000000 0.000003 -25.132306 -5.128572 2.414716 38.834010 9.743323 2.330047 -3.982419 4.482860 -5.308734 -0.000019 -0.000000 -0.000030 0.000000 0.000000 -0.000000 17.489794 -10.148385 -2.689325 33.717946 5.251415 -9.197355 -24.700522 4.712705 8.943097 -20.775684 -0.000003 0.000004 0.000000 0.000001 0.000000 
3.637541 90.187889 -92.020920 -7.820253 -7.779714 -5.106940 12.450376 16.707836 0.296871 7.619692 4.383139 -0.536087 7.368774 4.721873 -0.458853 -0.584949 -2.276265 0.154851 -0.574510 -2.276909 0.164101 0.000001 0.000001 -0.000001 0.691546 0.278754 -10.648307 32.513012 -19.615245 -67.580514 -0.000007 -36.459010 0.000014 0.000001 0.000001 -0.000000 -0.471047 9.835338 16.846916 -8.637811 15.657396 44.975266 0.000008 59.270469 0.000007 -0.000002 0.000002 0.000001 -27.957742 -5.639159 4.690910 35.716739 9.811239 2.791328 1.159620 3.725644 -5.292587 -0.006042 0.000002 -0.000002 -0.000000 0.000000 -0.000000 15.260642 -8.543416 -1.303715 31.944450 4.419710 -8.007100 -29.374028 3.386494 9.349177 -17.130353 0.000003 0.000002 0.000001 -0.000000 0.000000 
3.341596 89.772301 -96.870811 -6.892502 -8.161206 -7.142013 12.711376 17.819057 2.937688 7.731481 4.311177 -0.634703 7.505359 4.633247 -0.558460 -0.817081 -2.301180 0.323624 -0.808946 -2.300794 0.330013 -0.000000 0.000000 -0.000000 0.675882 0.596751 -10.130674 33.071749 -20.800230 -68.079378 -0.000000 -39.180543 0.000001 0.000001 0.000001 -0.000000 -0.586899 10.559197 17.296201 -11.235828 16.623803 42.298914 0.000022 59.507661 -0.000011 -0.000002 0.000000 0.000001 -30.324322 -6.022024 7.755765 32.156309 9.740675 2.992035 4.333381 2.380357 -5.564977 -4.881500 -0.000000 0.000001 0.000001 0.000000 -0.000000 12.308348 -6.936072 1.206129 30.918805 4.371918 -7.179990 -32.662497 2.130333 8.660239 -6.592376 -0.000003 0.000002 0.000000 0.000000 0.000000 
